PathFileType	3	(X/Y/Z)	D:\minhoCalibration\240510\subject1_KPNP\preferred\preferred04.trc
DataRate	CameraRate	NumFrames	NumMarkers	Units	OrigDataRate	OrigDataStartFrame	OrigNumFrames
200.0	200.0	15	10	mm	200.0	124	182	
Frame#	Time	Left_Ankle_Outer1			Left_Ankle_Inner1			Left_Knee_Outer1			Left_Knee_Inner1			Left_Wrist1			Right_Wrist1			Right_Knee_Inner1			Right_Knee_Outer1			Right_Ankle_Inner1			Right_Ankle_Outer1			
		X1	Y1	Z1	X2	Y2	Z2	X3	Y3	Z3	X4	Y4	Z4	X5	Y5	Z5	X6	Y6	Z6	X7	Y7	Z7	X8	Y8	Z8	X9	Y9	Z9	X10	Y10	Z10	
124	0.61	-484.85031	126.38141	-588.30243	-539.55945	131.63118	-564.98993	-469.34521	576.7796	-478.1196	-575.27039	530.20026	-495.59326	-517.27283	982.4491	-660.41498	-742.24481	980.51013	-934.48981	-717.01385	506.61951	-917.68097	-750.15137	546.24414	-1016.2886	-641.013	110.15227	-1087.2083	-681.74786	117.58436	-1172.7015
125	0.615	-488.27902	126.0691	-587.35895	-542.51489	131.51897	-563.19397	-468.03165	575.92676	-475.71863	-574.66919	530.05579	-492.06812	-515.84088	981.38397	-658.43951	-741.17145	979.99652	-932.20764	-716.96692	506.09387	-916.07324	-750.07941	545.92847	-1014.7465	-640.8186	110.09234	-1086.6622	-681.56482	117.51117	-1172.2233
126	0.62	-491.88596	125.81028	-586.29657	-545.53558	131.38219	-561.36163	-466.82053	574.94574	-473.1843	-574.18011	529.94952	-488.388	-514.37604	980.19739	-656.42542	-739.99591	979.34222	-930.49951	-716.82172	505.47076	-915.23987	-750.0517	545.78497	-1013.3669	-640.50281	109.97768	-1086.1161	-681.20862	117.74718	-1171.6213
127	0.625	-495.6424	125.57555	-585.21039	-548.8681	131.24672	-559.4715	-465.69754	574.00061	-470.68622	-573.55133	529.78992	-484.61725	-512.82117	978.91632	-654.39099	-739.32471	978.96539	-927.35663	-716.75061	504.98557	-912.99994	-750.06879	545.38361	-1011.6378	-640.34155	109.8513	-1085.4652	-680.92786	117.86045	-1171.0038
128	0.63	-499.67471	125.27943	-584.02429	-552.41309	131.12605	-557.4082	-464.63739	572.96033	-468.10916	-572.99597	529.70996	-480.86765	-511.26917	977.51379	-652.3703	-738.53644	978.63666	-924.19928	-716.77289	504.31256	-911.3197	-750.14185	544.90759	-1009.8437	-640.06482	109.66653	-1084.9678	-680.7002	117.93027	-1170.4526
129	0.635	-503.85355	124.92599	-582.73279	-555.97955	130.96039	-555.30688	-463.62524	571.86847	-465.49426	-572.58466	529.48297	-477.08963	-509.70834	975.93237	-650.35535	-737.62244	977.89612	-922.03906	-716.78064	503.56631	-909.62531	-750.16412	544.21899	-1007.8008	-639.87708	109.45973	-1084.3821	-680.32672	118.14178	-1169.8516
130	0.64	-508.24988	124.64473	-581.31012	-559.76282	130.8553	-553.11816	-462.74496	570.69836	-462.88147	-572.43219	529.22058	-473.29102	-508.10455	974.29529	-648.41339	-737.03448	977.18079	-918.93427	-716.9342	502.85803	-907.69171	-750.35602	543.75342	-1005.9129	-639.59827	109.22837	-1083.8062	-680.0639	118.34427	-1169.2145
131	0.645	-512.53619	124.34711	-579.95996	-563.57684	130.65285	-550.85956	-461.91992	569.56384	-460.23364	-571.9834	529.00049	-469.42966	-506.43021	972.55554	-646.4389	-736.09912	976.83002	-916.58331	-717.09143	502.05231	-905.82166	-750.65979	543.29047	-1004.0064	-639.40442	109.08466	-1083.2551	-679.74158	118.58598	-1168.5592
132	0.65	-517.01227	124.13778	-578.55273	-567.29828	130.43442	-548.56586	-461.48343	568.23157	-457.71878	-571.87354	528.71997	-465.44601	-504.81964	970.65552	-644.57031	-735.29022	976.34448	-913.84442	-717.30377	501.23935	-903.78461	-751.13361	542.79822	-1002.1656	-639.15881	108.96844	-1082.6814	-679.51526	118.81252	-1167.9767
133	0.655	-521.41705	123.95719	-577.14398	-570.50684	130.32448	-545.45898	-460.66962	567.01562	-454.81439	-571.72845	528.38708	-461.49582	-503.12347	968.71979	-642.63934	-734.70502	975.73328	-910.95203	-717.66113	500.41019	-901.71356	-751.64783	542.20538	-1000.0103	-638.99109	108.92833	-1082.0802	-679.31641	119.09045	-1167.4026
134	0.66	-525.75415	123.75892	-575.854	-574.38434	130.06493	-543.37012	-460.32422	565.62531	-452.16525	-571.70178	528.05798	-457.50708	-501.5152	966.95062	-641.11151	-734.10388	974.96466	-908.1084	-718.18976	499.49353	-899.53973	-752.4071	541.6134	-997.88287	-638.75562	108.78323	-1081.5718	-679.10797	119.40126	-1166.8126
135	0.665	-530.10205	123.47514	-574.42358	-578.11078	129.92101	-541.36322	-459.81967	564.3656	-449.08295	-571.74542	527.59021	-453.49405	-499.9588	964.86542	-639.27942	-733.64026	974.0285	-904.52423	-718.83179	498.55182	-897.19659	-753.32971	540.87738	-995.53076	-638.69397	108.702	-1080.9615	-679.00629	119.5146	-1166.2855
136	0.67	-534.5238	123.20476	-572.81543	-581.57648	129.80206	-539.31854	-459.75827	562.99091	-446.30984	-571.89789	527.23755	-449.51404	-498.47568	962.73389	-637.49481	-732.92371	973.41565	-901.89014	-719.69263	497.62543	-894.77325	-754.29523	540.23419	-993.22864	-638.53583	108.58446	-1080.4927	-678.88916	119.99259	-1165.795
137	0.675	-538.19794	123.36362	-571.87933	-584.94189	129.65776	-537.54468	-459.64041	561.66016	-443.3385	-572.02899	526.76202	-445.75906	-496.37421	960.79053	-635.84802	-732.23608	972.88855	-899.05518	-720.64606	496.56793	-892.24622	-755.51874	539.53217	-990.69391	-638.51306	108.70461	-1079.8923	-678.78308	120.63638	-1165.1184
138	0.68	-541.6853	123.29341	-570.6994	-588.11359	129.50629	-535.87091	-459.60303	560.3717	-440.20288	-572.31232	526.19037	-441.99829	-494.65427	958.59668	-634.06201	-731.65021	972.15936	-895.82239	-721.78015	495.49008	-889.70917	-756.93127	538.77783	-988.14532	-638.37323	108.59361	-1079.4678	-678.84247	120.6467	-1164.4675
